<svg xmlns="http://www.w3.org/2000/svg" fill="#fff" width="307.671" height="52.381" viewBox="0 0 307.671 52.381">
    <g transform="translate(-99.667 -271.964)">
        <path d="M172.076,285.3c-.208-5.824-6.031-10.808-13-11.131l-46.786-2.186a12.069,12.069,0,0,0-12.624,12.311v28.249a11.614,11.614,0,0,0,12.9,11.756l47.809-4.234c7.129-.631,12.731-5.861,12.527-11.684Zm-22.325,20.859-24.24,6.194a6.058,6.058,0,0,1-7.627-4.965l-2.368-14.534a6.291,6.291,0,0,1,5.457-7.394l24.252-2.8c3.616-.418,7.026,1.655,7.626,4.637l2.359,11.8C155.809,302.069,153.364,305.231,149.751,306.154Z"/>
        <path d="M186.822,298.8a5.143,5.143,0,0,0,2.649,2.609,16.6,16.6,0,0,0,6.688,1.218c3.2,0,6.267-.714,7.571-2.226a3.172,3.172,0,0,0,.757-1.937,2.489,2.489,0,0,0-.8-1.808c-.842-.758-2.1-.967-4.627-1.135-1.6-.127-3.154-.211-4.753-.3a20.44,20.44,0,0,1-6.267-.756,4.98,4.98,0,0,1-3.323-4.71,6.073,6.073,0,0,1,.674-2.775,6.682,6.682,0,0,1,4-2.987,21.28,21.28,0,0,1,5.971-.758c2.692,0,6.057.336,8.329,1.513a7.267,7.267,0,0,1,3.154,3.366l-3.071.631a3.455,3.455,0,0,0-1.388-1.6c-1.892-1.22-5.34-1.472-7.15-1.472-1.346,0-4.332.127-6.056,1.262a2.911,2.911,0,0,0-1.556,2.523,2.5,2.5,0,0,0,.631,1.681c.8.843,1.893.968,4.626,1.137,2.062.127,4.165.168,6.225.337a18.119,18.119,0,0,1,4.543.8,5.158,5.158,0,0,1,3.659,4.964,5.633,5.633,0,0,1-.757,2.818,5.825,5.825,0,0,1-1.767,1.892c-2.145,1.514-5.173,2.02-8.412,2.02-4.921,0-11.019-.842-12.533-5.6Z"/>
        <path d="M235.233,298.883a14.8,14.8,0,0,1-4.417,4.291,15.3,15.3,0,0,1-7.487,1.935c-7.15,0-12.491-4.8-12.491-11.4a10.277,10.277,0,0,1,2.818-7.193,13,13,0,0,1,9-3.364,13.2,13.2,0,0,1,9.294,3.574,11.418,11.418,0,0,1,3.282,7.739H213.74c.337,5.51,5,8.243,9.841,8.243a10.876,10.876,0,0,0,2.062-.167,10.086,10.086,0,0,0,5.8-3.071A9.281,9.281,0,0,0,233,297.328Zm-3.365-6.73a7.683,7.683,0,0,0-3.492-5.046,10.071,10.071,0,0,0-5.846-1.642,8.637,8.637,0,0,0-6.814,2.819,7.569,7.569,0,0,0-1.893,3.869Z"/>
        <path d="M239.9,274.909h2.818V304.6H239.9Z"/>
        <path d="M272.034,298.883a14.766,14.766,0,0,1-4.416,4.291,15.305,15.305,0,0,1-7.487,1.935c-7.151,0-12.491-4.8-12.491-11.4a10.268,10.268,0,0,1,2.818-7.193,13.006,13.006,0,0,1,9-3.364,13.2,13.2,0,0,1,9.294,3.574,11.421,11.421,0,0,1,3.281,7.739H250.541c.338,5.51,5.006,8.243,9.842,8.243a10.845,10.845,0,0,0,2.061-.167,10.086,10.086,0,0,0,5.8-3.071,9.32,9.32,0,0,0,1.557-2.144Zm-3.364-6.73a7.687,7.687,0,0,0-3.492-5.046,10.076,10.076,0,0,0-5.846-1.642,8.637,8.637,0,0,0-6.814,2.819,7.569,7.569,0,0,0-1.893,3.869Z" />
        <path d="M300.929,297.539c-1.474,2.479-4.418,7.528-13.039,7.528-6.772,0-12.492-3.827-12.492-10.979,0-7.7,6.9-11.1,12.954-11.1a15.409,15.409,0,0,1,7.992,2.186,12.644,12.644,0,0,1,4.206,4.418l-2.775,1.178a10.215,10.215,0,0,0-9.465-5.386c-6.771,0-9.8,4.418-9.8,8.664,0,5.217,4.12,8.538,9.673,8.538a11.914,11.914,0,0,0,7.316-2.4,10.308,10.308,0,0,0,2.694-3.742Z"/>
        <path d="M308.876,275.414v8.413h5.89v2.187h-5.89V295.9c0,4.039,0,6.772,4.039,6.772a14.05,14.05,0,0,0,1.851-.125v2.229a15.188,15.188,0,0,1-2.776.295c-2.187,0-3.912-.591-4.88-2.1s-1.009-3.617-1.009-6.562V286.014h-3.953v-2.187H306.1V276.76Z"/>
        <path d="M320.654,287.191a8.5,8.5,0,0,1,1.43-1.6c2.986-2.48,6.6-2.438,8.959-2.4v2.9a20.277,20.277,0,0,0-2.144-.168,10.217,10.217,0,0,0-4.963,1.22,6.313,6.313,0,0,0-2.441,2.481,7.737,7.737,0,0,0-.841,3.7V304.6H317.92V283.827h2.734Z"/>
        <path d="M355.647,283.785h2.734V304.6h-2.734v-3.027c-1.22,1.092-4.038,3.574-10.262,3.574a17.87,17.87,0,0,1-5.551-.841c-6.016-1.978-5.174-8.117-5.3-9.338V283.785h2.778v11.4c0,1.472,0,3.574,1.344,5.173.883,1.052,2.945,2.228,6.772,2.228,2.312,0,5.973-.5,8.2-2.184,1.977-1.474,1.935-2.651,2.018-4.207Z"/>
        <path d="M367.129,304.6h-2.776V283.827h2.776v2.691c1.219-1.1,3.574-3.239,9.085-3.239a14.436,14.436,0,0,1,4.794.758,8.766,8.766,0,0,1,4.922,3.491c2.313-3.071,6.434-4.164,10.178-4.164,3.618,0,7.276.966,9.545,3.743a7.973,7.973,0,0,1,1.685,5.214V304.6h-2.775V293.038c-.044-1.725-.127-3.955-2.777-5.6a10.589,10.589,0,0,0-5.888-1.471c-1.935,0-5.173.419-7.109,2.271a4.985,4.985,0,0,0-1.556,3.995V304.6h-2.775v-11.44c-.085-2.062-.212-5-3.912-6.476a11.848,11.848,0,0,0-4.543-.758,11.421,11.421,0,0,0-6.1,1.472,5.145,5.145,0,0,0-2.775,5.091Z"/>
        <path d="M184.3,310.748h.99v3.058h3.588v-3.058h.99v7.206h-.99v-3.269h-3.588v3.269h-.99Z"/>
        <path d="M197.04,310.748h4.487l-.27.849h-3.238v2.209h2.968v.86h-2.968v2.428h3.248l.29.86H197.04Zm1.568-.53.65-1.359h1.15l-1.07,1.359Z"/>
        <path d="M208.379,310.748h2.869c1.339,0,2.249.679,2.249,1.678a1.832,1.832,0,0,1-1.47,1.659,2.2,2.2,0,0,1,1.35.741,1.656,1.656,0,0,1,.37,1.089,2.022,2.022,0,0,1-2.209,2.039h-3.159Zm.99.829v2.089h1.559c1.009,0,1.519-.37,1.519-1.089,0-.66-.469-1-1.369-1Zm0,2.938v2.6h1.659c1.079,0,1.689-.449,1.689-1.249,0-.88-.559-1.35-1.609-1.35Z"/>
        <path d="M220.56,310.748h4.487l-.27.849h-3.238v2.209h2.968v.86h-2.968v2.428h3.248l.29.86H220.56Z"/>
        <path d="M231.789,310.748h3.059a2.05,2.05,0,0,1,2.249,1.968,1.758,1.758,0,0,1-1.52,1.85l1.8,3.388h-1.06l-1.739-3.239h-1.8v3.239h-.989Zm.989.839v2.279h1.89c.9,0,1.389-.4,1.389-1.15s-.49-1.129-1.469-1.129Z" />
        <path d="M250.356,316.754a2.894,2.894,0,0,1-.669.71,3.628,3.628,0,0,1-2.179.74,3.332,3.332,0,0,1-3.5-3.6c0-2.488,1.359-4.037,3.578-4.037a3.075,3.075,0,0,1,2.488,1.289l-.58.8a2.322,2.322,0,0,0-1.959-1.19c-1.549,0-2.478,1.15-2.478,3.078,0,1.749.92,2.779,2.468,2.779a2.236,2.236,0,0,0,1.839-.879v-1.17h-2.808v-.89h3.8Z"/>
        <path d="M257.4,310.748h4.489l-.271.849h-3.238v2.209h2.969v.86h-2.969v2.428h3.248l.29.86H257.4Z"/>
        <path d="M273.8,310.748h1.529v7.206h-.889v-6.407l-1.949,6.407h-.969l-1.959-6.407v6.407h-.89v-7.206h1.539l1.8,5.867Z"/>
        <path d="M282.479,310.748h4.488l-.271.849h-3.238v2.209h2.969v.86h-2.969v2.428h3.248l.29.86h-4.517Z"/>
        <path d="M293.809,310.748h1.33l3.177,5.617v-5.617h.99v7.206h-1.179l-3.339-5.877v5.877h-.979Z"/>
        <path d="M306.169,310.748h5.856v.869h-2.438v6.337h-.98v-6.337h-2.438Z"/>
        <path d="M329.037,310.748h1.02l1.579,5.856,1.728-5.856h.96l-2.109,7.206h-1.06l-1.608-5.927-1.63,5.927h-1.049l-2.089-7.206h.97l1.679,5.846Z"/>
        <path d="M341.129,310.748h4.488l-.27.849h-3.239v2.209h2.969v.86h-2.969v2.428h3.248l.29.86h-4.517Z"/>
        <path d="M352.469,310.748h2.868c1.339,0,2.249.679,2.249,1.678a1.832,1.832,0,0,1-1.47,1.659,2.2,2.2,0,0,1,1.35.741,1.651,1.651,0,0,1,.37,1.089,2.022,2.022,0,0,1-2.209,2.039h-3.158Zm.989.829v2.089h1.559c1.009,0,1.519-.37,1.519-1.089,0-.66-.47-1-1.369-1Zm0,2.938v2.6h1.659c1.079,0,1.689-.449,1.689-1.249,0-.88-.56-1.35-1.609-1.35Z" />
    </g>
</svg>